<?xml version="1.0" encoding="utf-8"?>
<!-- Generator: Adobe Illustrator 21.1.0, SVG Export Plug-In . SVG Version: 6.00 Build 0)  -->
<svg version="1.1" id="Layer_1" xmlns="http://www.w3.org/2000/svg" xmlns:xlink="http://www.w3.org/1999/xlink" x="0px" y="0px"
	 viewBox="0 0 64 64" style="enable-background:new 0 0 64 64;" xml:space="preserve">
<style type="text/css">
	.st0{fill:#E4CE8E;}
	.st1{fill:#A79E8B;}
	.st2{fill:#314A52;}
</style>
<g id="Boots">
	<polygon class="st0" points="35,11 61,15 61,49 3,49 3,41 30,33 	"/>
	<path class="st1" d="M56,16c0,17.7-16,32-35.8,32l-0.1,0L20,48c-8,0-14.7-1.5-15.8-3.4C4.8,42,7.2,40,10,40h6v-4h-6
		C4.5,36,0,40.5,0,46v10h26c6.4,0,13.5-2.2,18-3.7V56h20v-8h-3V15h-5C56,15.3,56,15.7,56,16z"/>
	<path class="st2" d="M34.6,8L32,9.9V20c0,8.8-7.2,16-16,16h-2v4h2c3.9,0,7.6-1.1,10.7-3.1l2.7,3.7l3.2-2.4l-2.8-3.9
		c1-0.9,1.8-1.9,2.6-3l4.7,2.3l1.8-3.6l-4.5-2.3c0.5-1.3,1-2.6,1.2-3.9H40v-4h-4v-7.4l3.4,1c5.5,1.6,11.2,2.4,16.9,2.4H60v28h-8v4
		h12V12h-7.7c-5.3,0-10.6-0.8-15.8-2.3L34.6,8z"/>
</g>
</svg>
